<?xml version="1.0" encoding="UTF-8" standalone="no"?>
<svg
   height="24px"
   viewBox="0 -960 960 960"
   width="24px"
   fill="#e8eaed"
   version="1.1"
   id="svg4"
   sodipodi:docname="ic_chart.svg"
   inkscape:version="1.2.2 (b0a8486541, 2022-12-01)"
   xmlns:inkscape="http://www.inkscape.org/namespaces/inkscape"
   xmlns:sodipodi="http://sodipodi.sourceforge.net/DTD/sodipodi-0.dtd"
   xmlns="http://www.w3.org/2000/svg"
   xmlns:svg="http://www.w3.org/2000/svg">
  <defs
     id="defs8" />
  <sodipodi:namedview
     id="namedview6"
     pagecolor="#ffffff"
     bordercolor="#000000"
     borderopacity="0.25"
     inkscape:showpageshadow="2"
     inkscape:pageopacity="0.0"
     inkscape:pagecheckerboard="0"
     inkscape:deskcolor="#d1d1d1"
     showgrid="false"
     inkscape:zoom="16.291667"
     inkscape:cx="6.629156"
     inkscape:cy="13.196931"
     inkscape:window-width="1920"
     inkscape:window-height="1043"
     inkscape:window-x="0"
     inkscape:window-y="0"
     inkscape:window-maximized="1"
     inkscape:current-layer="svg4" />
  <path
     d="M680-160q-17 0-28.5-11.5T640-200v-200q0-17 11.5-28.5T680-440h80q17 0 28.5 11.5T800-400v200q0 17-11.5 28.5T760-160h-80Zm-240 0q-17 0-28.5-11.5T400-200v-560q0-17 11.5-28.5T440-800h80q17 0 28.5 11.5T560-760v560q0 17-11.5 28.5T520-160h-80Zm-240 0q-17 0-28.5-11.5T160-200v-360q0-17 11.5-28.5T200-600h80q17 0 28.5 11.5T320-560v360q0 17-11.5 28.5T280-160h-80Z"
     id="path2"
     style="fill:#000000" />
</svg>
