<?xml version="1.0" encoding="UTF-8" standalone="no"?>
<svg
   height="24px"
   viewBox="0 -960 960 960"
   width="24px"
   fill="#e8eaed"
   version="1.1"
   id="svg4"
   sodipodi:docname="ic_home_outlined.svg"
   inkscape:version="1.2.2 (b0a8486541, 2022-12-01)"
   xmlns:inkscape="http://www.inkscape.org/namespaces/inkscape"
   xmlns:sodipodi="http://sodipodi.sourceforge.net/DTD/sodipodi-0.dtd"
   xmlns="http://www.w3.org/2000/svg"
   xmlns:svg="http://www.w3.org/2000/svg">
  <defs
     id="defs8" />
  <sodipodi:namedview
     id="namedview6"
     pagecolor="#ffffff"
     bordercolor="#000000"
     borderopacity="0.25"
     inkscape:showpageshadow="2"
     inkscape:pageopacity="0.0"
     inkscape:pagecheckerboard="0"
     inkscape:deskcolor="#d1d1d1"
     showgrid="false"
     inkscape:zoom="32.583333"
     inkscape:cx="12"
     inkscape:cy="12"
     inkscape:window-width="1920"
     inkscape:window-height="1043"
     inkscape:window-x="0"
     inkscape:window-y="0"
     inkscape:window-maximized="1"
     inkscape:current-layer="svg4" />
  <path
     d="M240-200h120v-200q0-17 11.5-28.5T400-440h160q17 0 28.5 11.5T600-400v200h120v-360L480-740 240-560v360Zm-80 0v-360q0-19 8.5-36t23.5-28l240-180q21-16 48-16t48 16l240 180q15 11 23.5 28t8.5 36v360q0 33-23.5 56.5T720-120H560q-17 0-28.5-11.5T520-160v-200h-80v200q0 17-11.5 28.5T400-120H240q-33 0-56.5-23.5T160-200Zm320-270Z"
     id="path2"
     style="fill:#000000" />
</svg>
