<?xml version="1.0" encoding="UTF-8" standalone="no"?>
<svg
   height="24px"
   viewBox="0 -960 960 960"
   width="24px"
   fill="#e8eaed"
   version="1.1"
   id="svg4"
   sodipodi:docname="ic_share_outlined.svg"
   inkscape:version="1.2.2 (b0a8486541, 2022-12-01)"
   xmlns:inkscape="http://www.inkscape.org/namespaces/inkscape"
   xmlns:sodipodi="http://sodipodi.sourceforge.net/DTD/sodipodi-0.dtd"
   xmlns="http://www.w3.org/2000/svg"
   xmlns:svg="http://www.w3.org/2000/svg">
  <defs
     id="defs8" />
  <sodipodi:namedview
     id="namedview6"
     pagecolor="#ffffff"
     bordercolor="#000000"
     borderopacity="0.25"
     inkscape:showpageshadow="2"
     inkscape:pageopacity="0.0"
     inkscape:pagecheckerboard="0"
     inkscape:deskcolor="#d1d1d1"
     showgrid="false"
     inkscape:zoom="32.583333"
     inkscape:cx="12"
     inkscape:cy="12"
     inkscape:window-width="1920"
     inkscape:window-height="1043"
     inkscape:window-x="0"
     inkscape:window-y="0"
     inkscape:window-maximized="1"
     inkscape:current-layer="svg4" />
  <path
     d="M680-80q-50 0-85-35t-35-85q0-6 3-28L282-392q-16 15-37 23.5t-45 8.5q-50 0-85-35t-35-85q0-50 35-85t85-35q24 0 45 8.5t37 23.5l281-164q-2-7-2.5-13.5T560-760q0-50 35-85t85-35q50 0 85 35t35 85q0 50-35 85t-85 35q-24 0-45-8.5T598-672L317-508q2 7 2.5 13.5t.5 14.5q0 8-.5 14.5T317-452l281 164q16-15 37-23.5t45-8.5q50 0 85 35t35 85q0 50-35 85t-85 35Zm0-80q17 0 28.5-11.5T720-200q0-17-11.5-28.5T680-240q-17 0-28.5 11.5T640-200q0 17 11.5 28.5T680-160ZM200-440q17 0 28.5-11.5T240-480q0-17-11.5-28.5T200-520q-17 0-28.5 11.5T160-480q0 17 11.5 28.5T200-440Zm480-280q17 0 28.5-11.5T720-760q0-17-11.5-28.5T680-800q-17 0-28.5 11.5T640-760q0 17 11.5 28.5T680-720Zm0 520ZM200-480Zm480-280Z"
     id="path2"
     style="fill:#000000" />
</svg>
